<?xml version="1.0" encoding="utf-8"?>
<!-- Generator: Adobe Illustrator 24.0.2, SVG Export Plug-In . SVG Version: 6.00 Build 0)  -->
<svg version="1.1" id="Layer_1" xmlns="http://www.w3.org/2000/svg" xmlns:xlink="http://www.w3.org/1999/xlink" x="0px" y="0px"
	 viewBox="0 0 1920 1080" style="enable-background:new 0 0 1920 1080;" xml:space="preserve">
<style type="text/css">
	.st0{fill:url(#SVGID_1_);}
	.st1{fill:url(#SVGID_2_);stroke:#000000;stroke-miterlimit:10;}
	.st2{fill:url(#SVGID_3_);}
	.st3{opacity:0.41;fill:#F5FFFF;}
	.st4{opacity:0.39;fill:#F5FFFF;}
	.st5{clip-path:url(#SVGID_5_);fill:url(#SVGID_6_);}
	.st6{fill:none;stroke:#FFFFFF;stroke-miterlimit:10;}
	.st7{fill:none;stroke:#FAFFFF;stroke-miterlimit:10;}
	.st8{fill:none;stroke:#FAFFFF;stroke-width:4;stroke-miterlimit:10;}
	.st9{clip-path:url(#SVGID_8_);fill:url(#SVGID_9_);}
	.st10{fill:none;}
	.st11{clip-path:url(#SVGID_11_);fill:url(#SVGID_12_);}
	.st12{fill:url(#SVGID_13_);}
	.st13{clip-path:url(#SVGID_15_);fill:url(#SVGID_16_);}
</style>
<linearGradient id="SVGID_1_" gradientUnits="userSpaceOnUse" x1="-21.435" y1="550.9271" x2="1934" y2="550.9271">
	<stop  offset="0" style="stop-color:#0099FF"/>
	<stop  offset="1" style="stop-color:#ED2D79"/>
</linearGradient>
<path class="st0" d="M1934,1115.13H-21.43c0-293.56,0-587.12,0-880.67c0-82.58,0-165.16,0-247.74c651.81,0,1303.62,0,1955.43,0
	V1115.13z"/>
<linearGradient id="SVGID_2_" gradientUnits="userSpaceOnUse" x1="451.5236" y1="174.0895" x2="451.5236" y2="174.0895">
	<stop  offset="0" style="stop-color:#0099FF"/>
	<stop  offset="1" style="stop-color:#ED2D79"/>
</linearGradient>
<path class="st1" d="M451.52,174.09"/>
<linearGradient id="SVGID_3_" gradientUnits="userSpaceOnUse" x1="718.18" y1="483.0358" x2="1287.2889" y2="483.0358">
	<stop  offset="0" style="stop-color:#9200D0"/>
	<stop  offset="1" style="stop-color:#FF2D9D"/>
</linearGradient>
<path class="st2" d="M963.56,231.45c-33.4-9.81-75.7,3.1-99.06,27.52c-30.28,31.66-7.91,60.91-31.18,121.07
	c-22.27,57.56-51.31,52.9-82.55,111.9c-11,20.78-51.55,97.37-22.01,163.26c29.99,66.92,126.58,110.12,192.61,86.22
	c82.19-29.75,71.33-146.94,181.61-192.61c26.17-10.84,37.61-8.72,69.71-25.68c28.56-15.09,88.99-47.02,108.23-106.39
	c26.8-82.72-35.79-189.65-95.39-198.11c-26.13-3.71-60.35,10.27-93.55,23.85c-34.2,13.98-44.57,24.24-66.04,22.01
	C996.79,261.45,993.4,240.22,963.56,231.45z"/>
<circle class="st3" cx="680.39" cy="842.25" r="28.91"/>
<circle class="st4" cx="1390.73" cy="218" r="19.26"/>
<circle class="st4" cx="324.03" cy="428.84" r="19.26"/>
<g>
	<defs>
		<rect id="SVGID_4_" x="1453.44" y="-13" width="474.81" height="644.13"/>
	</defs>
	<clipPath id="SVGID_5_">
		<use xlink:href="#SVGID_4_"  style="overflow:visible;"/>
	</clipPath>
	<linearGradient id="SVGID_6_" gradientUnits="userSpaceOnUse" x1="1505.1165" y1="303.1948" x2="2028.3513" y2="303.1948">
		<stop  offset="3.098231e-07" style="stop-color:#FF5D00"/>
		<stop  offset="1" style="stop-color:#FF2D9D"/>
	</linearGradient>
	<path class="st5" d="M1771.68,59.72c-49.93,57.35-75.16,86.14-88.05,91.72c-56.05,24.25-93.66-22.01-137.58,7.34
		c-33.92,22.67-39.53,69-40.36,77.04c-3.57,34.94,10.23,61.61,16.51,73.38c29.96,56.09,72.11,49.11,91.72,93.55
		c17.87,40.5-11.66,58.72,0,106.39c13.19,53.96,69.58,106.6,126.57,110.06c71.71,4.36,123.9-70.39,179.77-150.42
		c21.62-30.97,58.09-84.19,80.71-165.1c18.42-65.86,58.64-209.68-16.51-278.83c-40.72-37.47-111.26-49.29-155.92-25.68
		C1816.73,5.43,1815.29,9.64,1771.68,59.72z"/>
</g>
<line class="st6" x1="613.12" y1="526.72" x2="814.27" y2="640.94"/>
<line class="st6" x1="628.96" y1="568.48" x2="759.7" y2="647.59"/>
<line class="st6" x1="612.29" y1="483.04" x2="844.12" y2="623.55"/>
<line class="st6" x1="619.89" y1="455.94" x2="864.55" y2="601.05"/>
<line class="st6" x1="628.37" y1="423.7" x2="887.19" y2="573.99"/>
<line class="st6" x1="643.67" y1="391.46" x2="900.17" y2="540.53"/>
<line class="st6" x1="662.89" y1="361.71" x2="920.05" y2="509.16"/>
<line class="st6" x1="683.77" y1="339.31" x2="942.54" y2="483.04"/>
<line class="st6" x1="707.22" y1="314.49" x2="974.16" y2="459.07"/>
<line class="st6" x1="724.49" y1="283.85" x2="1016.81" y2="441.09"/>
<line class="st6" x1="728.21" y1="250.22" x2="1065.58" y2="422.64"/>
<line class="st6" x1="738.65" y1="218" x2="1099.06" y2="403.5"/>
<line class="st6" x1="742.22" y1="185.15" x2="1136.67" y2="382.56"/>
<line class="st6" x1="757.4" y1="158.49" x2="1152.87" y2="355.7"/>
<line class="st6" x1="783.68" y1="139.48" x2="1164.19" y2="319.92"/>
<line class="st6" x1="836.83" y1="127.78" x2="1178.65" y2="295.39"/>
<line class="st6" x1="955.14" y1="155.43" x2="1184.36" y2="263.97"/>
<line class="st6" x1="984.86" y1="141.98" x2="1172.43" y2="223.62"/>
<line class="st6" x1="1022.37" y1="127.42" x2="1157.95" y2="188.29"/>
<line class="st6" x1="1063.29" y1="117.53" x2="1129.56" y2="148.18"/>
<line class="st7" x1="1549.31" y1="351.85" x2="1706.25" y2="422.65"/>
<line class="st7" x1="1537.47" y1="315.87" x2="1743.5" y2="407.65"/>
<line class="st7" x1="1539.63" y1="277.85" x2="1766.63" y2="386.78"/>
<line class="st7" x1="1545.18" y1="243.76" x2="1794.7" y2="354.73"/>
<line class="st7" x1="1534.57" y1="209.7" x2="1808.06" y2="326.34"/>
<line class="st7" x1="1451.95" y1="132.86" x2="1823.19" y2="299.25"/>
<line class="st7" x1="1433.09" y1="87.44" x2="1853.65" y2="273.26"/>
<line class="st7" x1="1430.62" y1="57.96" x2="1864.47" y2="246.55"/>
<line class="st7" x1="1437.76" y1="21.83" x2="1879.6" y2="216.05"/>
<line class="st7" x1="1461.36" y1="-6.6" x2="1890.61" y2="182.8"/>
<line class="st7" x1="1539.85" y1="-13.28" x2="1898.07" y2="144.33"/>
<line class="st7" x1="1640.49" y1="-10" x2="1898.57" y2="107.13"/>
<line class="st7" x1="1712.1" y1="-13.79" x2="1898.57" y2="71.46"/>
<line class="st7" x1="1798.77" y1="-13.28" x2="1898.57" y2="28.48"/>
<line class="st7" x1="2368.47" y1="78.7" x2="2346.45" y2="132.86"/>
<line class="st8" x1="68.98" y1="333.5" x2="271.36" y2="41.59"/>
<line class="st8" x1="886.82" y1="952.45" x2="1035.65" y2="737.79"/>
<line class="st8" x1="1526.59" y1="738.47" x2="1728.97" y2="446.56"/>
<line class="st8" x1="373.14" y1="644.8" x2="460.32" y2="519.06"/>
<g>
	<defs>
		<rect id="SVGID_7_" x="-21.43" y="-13.28" width="715.76" height="496.32"/>
	</defs>
	<clipPath id="SVGID_8_">
		<use xlink:href="#SVGID_7_"  style="overflow:visible;"/>
	</clipPath>
	<linearGradient id="SVGID_9_" gradientUnits="userSpaceOnUse" x1="-100.1131" y1="210.6324" x2="619.8862" y2="210.6324">
		<stop  offset="0" style="stop-color:#0099FF"/>
		<stop  offset="0.9907" style="stop-color:#8C009D"/>
	</linearGradient>
	<path class="st9" d="M160.88-33.05C115.94-29.44,21.86-21.86-7.88,36.65c-28.99,57.04,29.1,111.42-3.67,185.27
		c-27.02,60.9-82.05,58.91-88.05,106.39c-6.35,50.26,47.1,117.34,106.39,126.57c82.93,12.92,106.55-98.34,221.96-119.24
		c112.78-20.42,159.99,73.19,254.98,44.03c77.27-23.72,141.87-115.08,135.75-192.61C607.94,40.92,345.73-47.93,160.88-33.05z"/>
</g>
<rect x="-21.93" y="519.06" class="st10" width="649.56" height="596.07"/>
<g>
	<defs>
		<rect id="SVGID_10_" x="987.17" y="748.07" width="708.08" height="367.07"/>
	</defs>
	<clipPath id="SVGID_11_">
		<use xlink:href="#SVGID_10_"  style="overflow:visible;"/>
	</clipPath>
	<linearGradient id="SVGID_12_" gradientUnits="userSpaceOnUse" x1="1077.0349" y1="1012.0535" x2="1661.7565" y2="1012.0535">
		<stop  offset="1.016607e-07" style="stop-color:#E700B6"/>
		<stop  offset="1" style="stop-color:#E96E00"/>
	</linearGradient>
	<path class="st11" d="M1194.8,834.58c-34.8,17.69-57.76-5.9-88.05,14.68c-1.4,0.95-25.96,18.16-29.35,45.86
		c-4.55,37.22,34.58,48.64,42.19,91.72c7.2,40.76-24.08,51.76-31.18,106.4c-5.27,40.48,2.4,107.5,38.52,126.57
		c51.04,26.96,107.55-68.93,194.45-51.36c52.99,10.71,50.42,50.09,119.24,75.21c21.22,7.75,112.59,37.26,172.43-12.84
		c51.09-42.77,60.72-128.07,34.85-185.27c-28.4-62.82-85.74-61.07-154.09-148.59c-29.82-38.18-21.81-62.37-53.2-89.89
		c-43.77-38.36-99.37-41.89-117.4-42.19c-21.14-0.35-47.45-0.79-73.38,14.68C1217.72,798.71,1223.65,819.92,1194.8,834.58z"/>
</g>
<linearGradient id="SVGID_13_" gradientUnits="userSpaceOnUse" x1="1960.8313" y1="336.4306" x2="2016.2625" y2="336.4306">
	<stop  offset="0" style="stop-color:#0099FF"/>
	<stop  offset="0.9907" style="stop-color:#8C009D"/>
</linearGradient>
<polygon class="st12" points="1960.83,336.43 2016.26,336.43 2016.26,336.43 1960.83,336.43 "/>
<g>
	<defs>
		<rect id="SVGID_14_" x="-21.43" y="454.75" width="660.38" height="660.38"/>
	</defs>
	<clipPath id="SVGID_15_">
		<use xlink:href="#SVGID_14_"  style="overflow:visible;"/>
	</clipPath>
	<linearGradient id="SVGID_16_" gradientUnits="userSpaceOnUse" x1="16.1439" y1="842.1813" x2="569.9495" y2="842.1813">
		<stop  offset="0" style="stop-color:#0099FF"/>
		<stop  offset="1" style="stop-color:#8C009D"/>
	</linearGradient>
	<path class="st13" d="M458.02,1087.07c32.12,13.28,89.17-9.94,106.93-73.35c15.07-53.8-8.15-103.31-14.63-117.11
		c-5.98-12.74-27.84-55.61-72.51-80.11c-52.35-28.7-77.88-0.3-106.75-26.71c-31.46-28.78-8.8-69.5-41.75-148.35
		c-12.83-30.71-32.25-77.19-68.23-92.06c-64.57-26.7-143.14,64.65-156.74,80.46C94.74,641-20.01,788.11,27.71,956.13
		c31.83,112.08,84.36,228.65,186.08,166.27c26.82-16.45,9.63-57.19,46.7-97.01c6.73-7.23,40.16-45.02,83.09-38.2
		c36.53,5.8,61.79,40.66,72.68,56.59C440.21,1078.82,432.91,1076.69,458.02,1087.07z"/>
</g>
<line class="st6" x1="-21.43" y1="952.59" x2="52.84" y2="1002.89"/>
<line class="st6" x1="-21.93" y1="913.1" x2="82.95" y2="989.05"/>
<line class="st6" x1="-21.43" y1="868.77" x2="107.57" y2="953.71"/>
<line class="st6" x1="-18.41" y1="816.24" x2="107.57" y2="905.55"/>
<line class="st6" x1="-21.93" y1="761.32" x2="135.09" y2="871.16"/>
<line class="st6" x1="-21.93" y1="710.63" x2="188.44" y2="854.47"/>
<line class="st6" x1="126.32" y1="865.02" x2="126.32" y2="865.02"/>
<line class="st6" x1="-21.93" y1="661.06" x2="395" y2="939.8"/>
<line class="st6" x1="285.42" y1="910.43" x2="362.1" y2="962.19"/>
<line class="st6" x1="-21.43" y1="614.99" x2="415.78" y2="918.64"/>
<line class="st6" x1="-21.43" y1="573.92" x2="439.11" y2="889.04"/>
<line class="st6" x1="-21.43" y1="527.83" x2="438.89" y2="835.12"/>
<line class="st6" x1="-7.26" y1="475.43" x2="433.9" y2="802.74"/>
<line class="st6" x1="27.78" y1="454.29" x2="218.07" y2="583.83"/>
<line class="st6" x1="58.05" y1="428.84" x2="202.79" y2="519.06"/>
<line class="st6" x1="102.08" y1="411.25" x2="162.21" y2="441.05"/>
<line class="st6" x1="323.76" y1="675.14" x2="411.38" y2="747.89"/>
</svg>
