<?xml version="1.0" encoding="utf-8"?>
<!-- Generator: Adobe Illustrator 24.0.2, SVG Export Plug-In . SVG Version: 6.00 Build 0)  -->
<svg version="1.1" id="Layer_1" xmlns="http://www.w3.org/2000/svg" xmlns:xlink="http://www.w3.org/1999/xlink" x="0px" y="0px"
	 viewBox="0 0 600 600" style="enable-background:new 0 0 600 600;" xml:space="preserve">
<style type="text/css">
	.st0{fill:url(#SVGID_1_);}
</style>
<linearGradient id="SVGID_1_" gradientUnits="userSpaceOnUse" x1="31.8292" y1="297.9202" x2="581.2534" y2="297.9202">
	<stop  offset="0" style="stop-color:#FFFFFF"/>
	<stop  offset="0" style="stop-color:#4F94C3"/>
	<stop  offset="0.1113" style="stop-color:#5A94C2"/>
	<stop  offset="0.2881" style="stop-color:#7593C1"/>
	<stop  offset="0.5083" style="stop-color:#9891BE"/>
	<stop  offset="0.7606" style="stop-color:#C48FBB"/>
	<stop  offset="1" style="stop-color:#F38BB9"/>
</linearGradient>
<path class="st0" d="M411.87,110.76c-71.49,1.01-81.72-28.08-135.16-18.68c-5.77,1.01-52.68,9.92-86.81,48.35
	c-35.17,39.6-17.19,65.98-48.35,108.79C102.7,302.57,55.4,288.19,37.76,327.4c-21.44,47.64,17.39,130.69,82.65,163.28
	c63.24,31.58,136.35,8.32,178.28-25.07c59.79-47.6,32.9-97.23,91.21-141.76c63.37-48.4,123.84-11.71,167.03-65.85
	c18.46-23.14,31.77-60.37,19.71-94.3c-13.96-39.25-54.94-54.5-68.06-58.54C473.7,94.45,463.46,110.03,411.87,110.76z"/>
</svg>
