<?xml version="1.0" encoding="utf-8"?>
<!-- Generator: Adobe Illustrator 24.0.2, SVG Export Plug-In . SVG Version: 6.00 Build 0)  -->
<svg version="1.1" xmlns="http://www.w3.org/2000/svg" xmlns:xlink="http://www.w3.org/1999/xlink" x="0px" y="0px"
	 viewBox="0 0 1920 1080" style="enable-background:new 0 0 1920 1080;" xml:space="preserve">
<style type="text/css">
	.st0{fill:url(#SVGID_1_);}
	.st1{fill:url(#SVGID_2_);}
	.st2{fill:url(#SVGID_3_);}
	.st3{fill:url(#SVGID_4_);}
	.st4{fill:none;stroke:#FF7765;stroke-width:10;stroke-miterlimit:10;}
	.st5{fill:url(#SVGID_5_);}
	.st6{fill:url(#SVGID_6_);}
	.st7{fill:none;stroke:#C56EFF;stroke-width:10;stroke-miterlimit:10;}
	.st8{fill:none;stroke:#FFBDCC;stroke-width:3;stroke-miterlimit:10;}
</style>
<g id="Layer_1">
	<g>
		<linearGradient id="SVGID_1_" gradientUnits="userSpaceOnUse" x1="0" y1="540" x2="1920" y2="540">
			<stop  offset="0" style="stop-color:#2E3192"/>
			<stop  offset="1" style="stop-color:#0071BC"/>
		</linearGradient>
		<rect class="st0" width="1920" height="1080"/>
	</g>
	<linearGradient id="SVGID_2_" gradientUnits="userSpaceOnUse" x1="102.3149" y1="441.2906" x2="637.7501" y2="441.2906">
		<stop  offset="0" style="stop-color:#ED7479"/>
		<stop  offset="1" style="stop-color:#662D91"/>
	</linearGradient>
	<path class="st1" d="M487.5,225.5c-25.07-10.15-60.53-28.76-89-64c-28.35-35.09-23.01-53.55-46-77
		c-39.84-40.65-124.34-55.06-183-17c-62.68,40.67-66.11,121.97-67,143c-3.66,86.76,48.09,102.54,55,191
		c7.53,96.43-51.14,113.81-50,208c1.06,87.53,53.26,198.97,136,223c115.42,33.51,235.1-119.09,286-184
		c59.08-75.34,129.84-165.56,102-269C605.96,284.62,513.34,237.6,487.5,225.5z"/>
	<linearGradient id="SVGID_3_" gradientUnits="userSpaceOnUse" x1="1322.7035" y1="273.2962" x2="1953.8346" y2="273.2962">
		<stop  offset="0" style="stop-color:#ED7479"/>
		<stop  offset="1" style="stop-color:#662D91"/>
	</linearGradient>
	<path class="st2" d="M1476,78c-26.82-0.99-75.16-2.76-107,16c-25.13,14.81-43.5,44.48-46,74c-4.7,55.58,47.44,103.96,94,120
		c44.05,15.18,57.52-7.41,112,4c7.5,1.57,81.45,18.08,122,77c46.38,67.38,2.33,122.31,43,170c38.85,45.55,128.41,53.3,183,20
		c92.22-56.25,100.43-239.24,30-324c-41.57-50.03-104.31-58.34-138-137c-10.64-24.84-10.8-39-28-63c-27.01-37.68-81.47-79.33-121-65
		c-33.28,12.06-63.28,66.45-68,75c-3.79,6.87-8.09,15.62-18,23C1516.17,81.27,1495.44,78.72,1476,78z"/>
	<linearGradient id="SVGID_4_" gradientUnits="userSpaceOnUse" x1="976.2867" y1="931.6534" x2="1561.5959" y2="931.6534">
		<stop  offset="0" style="stop-color:#ED7479"/>
		<stop  offset="1" style="stop-color:#662D91"/>
	</linearGradient>
	<path class="st3" d="M1404,813c-52.94-30.02-51.21-64.95-91-98c-77.6-64.45-231.18-53.66-263,5c-30.67,56.53,67.09,129.25,31,202
		c-22.89,46.15-73.84,40.29-96,94c-15.98,38.71-8.42,87.59,10,115c79.31,118.03,507.41,57.46,560-115c15.5-50.83,4.41-131.14-41-166
		C1481.22,824.83,1453.93,841.31,1404,813z"/>
	<circle class="st4" cx="33" cy="399" r="69"/>
	<linearGradient id="SVGID_5_" gradientUnits="userSpaceOnUse" x1="1309" y1="78" x2="1309" y2="78">
		<stop  offset="0" style="stop-color:#2E3192"/>
		<stop  offset="1" style="stop-color:#0071BC"/>
	</linearGradient>
	<path class="st5" d="M1309,78"/>
</g>
<g id="Layer_3">
	<linearGradient id="SVGID_6_" gradientUnits="userSpaceOnUse" x1="1789" y1="825.5" x2="1940" y2="825.5">
		<stop  offset="0" style="stop-color:#ED7479"/>
		<stop  offset="0" style="stop-color:#E77127"/>
		<stop  offset="1" style="stop-color:#C56EFF"/>
	</linearGradient>
	<polygon class="st6" points="1803,759 1789,892 1940,856 	"/>
	<line class="st7" x1="663" y1="129" x2="663" y2="236"/>
	<line class="st7" x1="763" y1="133" x2="658" y2="134"/>
	<line class="st7" x1="760" y1="46" x2="758" y2="134"/>
	<line class="st7" x1="850" y1="50" x2="755" y2="50"/>
</g>
<g id="Layer_2">
	<line class="st8" x1="524.5" y1="864.5" x2="407.5" y2="895.5"/>
	<line class="st8" x1="381.5" y1="931.5" x2="549.5" y2="875.5"/>
	<line class="st8" x1="371.5" y1="957.5" x2="586.5" y2="889.5"/>
	<line class="st8" x1="370.5" y1="990.5" x2="625.5" y2="890.5"/>
	<line class="st8" x1="370.5" y1="1015.5" x2="850.5" y2="823.5"/>
	<line class="st8" x1="679.5" y1="863.5" x2="791.5" y2="815.5"/>
	<line class="st8" x1="375.5" y1="1036.5" x2="881.5" y2="837.5"/>
	<line class="st8" x1="908.5" y1="857.5" x2="387.5" y2="1064.5"/>
	<line class="st8" x1="415.5" y1="1080.5" x2="926.5" y2="880.5"/>
	<line class="st8" x1="466.5" y1="1080.5" x2="938.5" y2="903.5"/>
	<line class="st8" x1="527.5" y1="1080.5" x2="944.5" y2="923.5"/>
	<line class="st8" x1="587.5" y1="1080.5" x2="948.5" y2="947.5"/>
	<line class="st8" x1="642.5" y1="1080.5" x2="948.5" y2="973.5"/>
	<line class="st8" x1="692.5" y1="1080.5" x2="944.5" y2="1002.5"/>
	<line class="st8" x1="773.5" y1="1080.5" x2="937.5" y2="1027.5"/>
	<line class="st8" x1="850.5" y1="1080.5" x2="925.5" y2="1054.5"/>
	<path class="st8" d="M911.5,120.5"/>
	<path class="st8" d="M929.5,47.5"/>
</g>
</svg>
